<svg width="16" height="16" viewBox="0 0 16 16" fill="none" xmlns="http://www.w3.org/2000/svg">
<path d="M11 4C11 5.65771 9.65772 7 8 7C6.34228 7 5 5.65771 5 4C5 2.34228 6.34228 1 8 1C9.65772 1 11 2.34228 11 4ZM1 14C1 13.7023 1.1412 13.3675 1.55276 12.9877C1.97111 12.6015 2.59853 12.2401 3.37062 11.9308C4.91642 11.3115 6.79001 11 8 11C9.20999 11 11.0836 11.3115 12.6294 11.9308C13.4015 12.2401 14.0289 12.6015 14.4472 12.9877C14.8588 13.3675 15 13.7023 15 14V15H1V14Z" stroke="#4F4F4F" stroke-width="2"/>
</svg>
